<svg viewBox="0 0 192 192" xmlns="http://www.w3.org/2000/svg">
    <!-- 定義遮罩，使背景區域具有圓角 -->
    <mask id="rounded-mask">
        <rect x="0" y="0" width="192" height="192" rx="50" ry="50" fill="white"/>
    </mask>

    <!-- 應用遮罩，使白色區域變透明 -->
    <g mask="url(#rounded-mask)">
        <rect x="0" y="0" width="192" height="192" fill="white"/> <!-- 背景填充白色 -->
        <g transform="translate(23.500002 -7.912111)">
            <!-- 獨立的藍色形狀 -->
            <g id="blue_shape">
                <path
                    d="m20.140625 32c-6.707027-.005532-12.1461566 5.433598-12.140625 12.140625v104.718755c-.00553 6.70703 5.433598 12.14615 12.140625 12.14062h4.726563c2.330826 8.74182 10.245751 14.82585 19.292968 14.83008 9.041406-.0113 16.94802-6.09387 19.277344-14.83008h4.841797 15.726562c4.418278 0 8-3.58172 8-8v-113l-8-8z"
                    fill="#346C99" />
            </g>
            <!-- 獨立的黃色形狀 -->
            <g id="yellow_shape">
                <path
                    d="m80.007812 31.994141c-.010665 17.702746-.007812 35.402384-.007812 53.115234l-16.630859-9.398437c-2.397357-1.352749-5.36425.37623-5.369141 3.128906v40.621096c.0049 2.75267 2.971786 4.48165 5.369141 3.1289l16.630859-9.40039v37.5918 2.21875 8h8 1.425781 36.054689c6.36195-.00026 11.51927-5.15758 11.51953-11.51953v-106.000001c-.02178-6.346694-5.1728-11.480247-11.51953-11.480469z"
                    fill="#FFCE3D" />
            </g>
        </g>
    </g>
    <!-- 旋轉135度後延伸10px的位置，繪製白色圓點 -->
    <circle cx="45" cy="38" r="7" fill="white"/>
    <rect x="30" y="50" width="50" height="5" fill="white"/>
    <circle cx="147" cy="139" r="7" fill="white"/>
    <rect x="112" y="122" width="50" height="5" fill="white"/>
</svg>
